<?xml version="1.0" encoding="UTF-8" standalone="no"?>
<!DOCTYPE svg PUBLIC "-//W3C//DTD SVG 1.1//EN" "http://www.w3.org/Graphics/SVG/1.1/DTD/svg11.dtd">
<!-- Created with Vectornator (http://vectornator.io/) -->
<svg height="100%" stroke-miterlimit="10" style="fill-rule:nonzero;clip-rule:evenodd;stroke-linecap:round;stroke-linejoin:round;" version="1.1" viewBox="0 0 512 512" width="100%" xml:space="preserve" xmlns="http://www.w3.org/2000/svg" xmlns:vectornator="http://vectornator.io" xmlns:xlink="http://www.w3.org/1999/xlink">
<defs/>
<g id="Untitled" vectornator:layerName="Untitled">
<path d="M440.917 67.925L71.083 67.925C31.827 67.925 0 99.752 0 139.008L0 372.992C0 412.248 31.827 444.075 71.083 444.075L440.917 444.075C480.172 444.075 512 412.248 512 372.992L512 139.008C512 99.752 480.172 67.925 440.917 67.925ZM178.166 321.72L78.626 406.64C71.605 412.632 61.05 411.799 55.059 404.771C49.067 397.75 49.9 387.195 56.929 381.204L156.469 296.284C163.489 290.292 174.043 291.125 180.035 298.154C186.027 305.174 185.194 315.729 178.166 321.72ZM256 289.436C242.686 289.403 229.78 284.979 219.69 276.253L219.698 276.261L219.666 276.237C219.674 276.245 219.683 276.245 219.69 276.253L66.962 143.694C59.982 137.636 59.239 127.082 65.288 120.111C71.345 113.131 81.9 112.388 88.87 118.437L241.641 251.029C244.906 253.935 250.286 256.033 256 256C261.706 256.017 266.995 253.976 270.44 250.972L270.514 250.907L423.129 118.438C430.1 112.389 440.655 113.132 446.712 120.112C452.76 127.082 452.018 137.637 445.038 143.695L292.268 276.294C282.211 284.929 269.322 289.419 256 289.436ZM456.948 404.771C450.956 411.799 440.401 412.632 433.382 406.64L333.842 321.72C326.814 315.728 325.981 305.174 331.973 298.154C337.964 291.125 348.519 290.293 355.539 296.284L455.079 381.204C462.107 387.195 462.94 397.75 456.948 404.771Z" fill="#ffffff" fill-rule="nonzero" opacity="1" stroke="none" vectornator:layerName="path"/>
</g>
</svg>
